<svg xmlns="http://www.w3.org/2000/svg" viewBox="0 0 16 16" fill="none" shape-rendering="crispEdges"><desc>"Pixel Art" by "Florian Körner", licensed under "CC0 1.0". / Remix of the original. - Created with dicebear.com</desc><metadata xmlns:dc="http://purl.org/dc/elements/1.1/" xmlns:cc="http://creativecommons.org/ns#" xmlns:rdf="http://www.w3.org/1999/02/22-rdf-syntax-ns#"><rdf:RDF><cc:Work><dc:title>Pixel Art</dc:title><dc:creator><cc:Agent rdf:about="https://dicebear.com"><dc:title>Florian Körner</dc:title></cc:Agent></dc:creator><dc:source>https://www.figma.com/community/file/1198754108850888330</dc:source><cc:license rdf:resource="https://creativecommons.org/licenses/zero/1.0/" /></cc:Work></rdf:RDF></metadata><mask id="viewboxMask"><rect width="16" height="16" rx="0" ry="0" x="0" y="0" fill="#fff" /></mask><g mask="url(#viewboxMask)"><path d="M4 2h8v1h1v3h1v2h-1v3h-1v1H9v1h4v1h1v2H2v-2h1v-1h4v-1H4v-1H3V8H2V6h1V3h1V2Z" fill="#cb9e6e"/><path d="M4 2h8v1h1v3h1v2h-1v3h-1v1H4v-1H3V8H2V6h1V3h1V2Z" fill="#fff" fill-opacity=".1"/><path fill="#5bc0de" d="M4 14h8v2H4z"/><path fill="#fff" fill-opacity=".3" d="M4 14h1v2H4zM11 14h1v2h-1z"/><path fill="#fff" d="M4 5h3v3H4zM9 5h3v3H9z"/><path fill="#5b7c8b" d="M10 6h1v1h-1zM5 6h1v1H5z"/><path d="M7 9v2h2V9H7Z" fill="#c98276"/><path d="M3 1h8v1h2v1h1v3h-1V4h-2V3H6v1H5V3H4v1H3v2H2v2h1v2H1V3h1V2h1V1ZM14 8h-1v2h1V8Z" fill="#28150a"/></g></svg>